<svg width="821" height="242" id="Layer_1" data-name="Layer 1" xmlns="http://www.w3.org/2000/svg" viewBox="0 0 394.32 85.22"><defs><style>.cls-1{fill:#fff;}</style></defs><title>Logo</title><rect x="0" y="0" width="100%" height="100%" fill="red" rx="15" ry="15" /><path class="cls-1" d="M215.41,246.11c0.18-4.63-7.86-3.08-9.28-2.94-2.57.25-5.13,2.18-7.69,2.22a55.82,55.82,0,0,1-6.74-.91c7.79,1.19,16.82-2.07,23.73-5.3,2.88-1.34,5.71.29,5.63,3.47-0.11,4.19-.87,8.21-4.31,11.16a8.11,8.11,0,0,0-1.29,2.3l3-1.56c0.39,3.84-1.7,4.19-4.44,5.3-0.49-1.07-.3-3.34-3.61-5.18Z" transform="translate(-132.63 -238.15)"/><path class="cls-1" d="M144.07,254.66a7.81,7.81,0,0,0-4.17,4.62c-2.74-1.11-4.82-1.46-4.44-5.3l3,1.56a8.11,8.11,0,0,0-1.29-2.3c-3.44-3-4.2-7-4.31-11.16-0.08-3.18,2.75-4.81,5.63-3.47,6.91,3.23,16.5,6.49,24.28,5.3a14.16,14.16,0,0,1-7.29.91c-2.52-.47-5.13-2-7.69-2.22-1.43-.14-9.47-1.69-9.28,2.94Z" transform="translate(-132.63 -238.15)"/><path class="cls-1" d="M174.31,304.16c-8.81.49-14.54,5.67-14.93,11.38,0.93-.71,1.53-1.85,2.47-2.44s2.42-1.44,3.35-.8c0.63,0.43,0,2.4.34,3.54,5.39,3.21,11.76,2.9,11.61-.8,0,2.82,1.77,2.78,3.26,2.8a11.62,11.62,0,0,0,8.09-2.8c-0.62-2.83,0-3.47,2.51-2.58a10.3,10.3,0,0,1,2.47,1.88l1.74,1.34C192.38,306.46,185.17,303.56,174.31,304.16Z" transform="translate(-132.63 -238.15)"/><path class="cls-1" d="M165.16,301.82c3.26-1,6.46-2.22,9.63-3.46a2.36,2.36,0,0,0,1.26-1.49c0.2-1,0-2.13.06-3.19a2.48,2.48,0,0,0-2-2.9,13.87,13.87,0,0,1-7.46-5.11,8.23,8.23,0,0,1-1.46-4.05,27.93,27.93,0,0,1,.55-4.25c-2.42,0-3,.91-3.58,2.43-0.72,2,1.61,4.08-2,5.16,1.45,1.22,3.24,4.26,5.54,6.19-4,.85-5.59-2.29-8.25-3.71,0.79,4.61,5.06,5.2,7.59,7.53l-0.21.38-7.74-1.93c2.13,4.05,6.35,2.05,8.94,4.19-2.49,1.6-4.78.72-7.06,0.48a4.14,4.14,0,0,0-1.52.48,4.56,4.56,0,0,0,1,1.38,13.65,13.65,0,0,0,3.42,1.78A6.11,6.11,0,0,0,165.16,301.82Z" transform="translate(-132.63 -238.15)"/><path class="cls-1" d="M184.72,279.84c-0.29.51,0.11,2.11-2.32,3a21.42,21.42,0,0,1-5,.6c-5.3,0-7.84-.74-7.78-3.6a3,3,0,0,0-1.46,2.06c0,1.67.43,2,.76,2.29,0.69,0.64,3.71.8,4.21,0.81,4.34,0.08,6.1,0,10.43-.15a2.76,2.76,0,0,0,2.2-1.08,2.09,2.09,0,0,0,0-2.28A4.58,4.58,0,0,0,184.72,279.84Z" transform="translate(-132.63 -238.15)"/><path class="cls-1" d="M194.06,269.64c2.84-1.4,1.8-3.84,1.79-4.61a11.69,11.69,0,0,0-2.34.36,5.94,5.94,0,0,0-2.34,2C191.27,268.87,192.13,270.6,194.06,269.64Z" transform="translate(-132.63 -238.15)"/><path class="cls-1" d="M196.9,293.44l-7.53,1.86-0.23-.43c2.35-2.31,6.84-2.66,7-7.24-2.38,1.56-4,4.38-7.89,3.45l7-5.71c-3.07-.89-3.14-2.9-3.28-4.92a2.49,2.49,0,0,0-.51-1.49,32.21,32.21,0,0,0-2.64-2.19,24.22,24.22,0,0,0-.27,2.91c0,1.06.34,2.12,0.33,3.17a3.57,3.57,0,0,1-.7,1.88,18.24,18.24,0,0,1-8,6.11,2.93,2.93,0,0,0-1.76,1.79,24.25,24.25,0,0,0-.11,3.83,2.16,2.16,0,0,0,1.39,2c3.28,1.25,6.32,2.44,9.4,3.52a3.9,3.9,0,0,0,2.52.07,21.49,21.49,0,0,0,4-2.21,5.3,5.3,0,0,0,1.08-1.56,7.31,7.31,0,0,0-1.51-.16c-1.52-.28-3.65-0.17-4.66-1.16C192.75,296.07,195.4,296.62,196.9,293.44Z" transform="translate(-132.63 -238.15)"/><path class="cls-1" d="M157.63,266.1c0,1.37-.06,2.9,2.09,3.61,1.27,0.42,2.84-1.31,2.93-2.53a5.44,5.44,0,0,0-2.51-1.84C158.14,264.59,157.66,264.44,157.63,266.1Z" transform="translate(-132.63 -238.15)"/><path class="cls-1" d="M143.86,254.66s-7.62-12,3.66-11.17l9.4,2.29a13.19,13.19,0,0,1-4.36.34c-2.18-.31-3.45-1.37-6.82-1a5.49,5.49,0,0,0-2.17.78c1.48,0.78,6.68,3,6.63,3.15-0.58-.2-3.51-0.83-4.33-1.11,0.52,2.14-.6,7.5,3.67,16,1.34,2.68,4.22,6.68,6.64,8.39a10.15,10.15,0,0,0,8.62,1.73,7.41,7.41,0,0,0-1.62-1.87,22.31,22.31,0,0,0-3.8-1.55c-5.1-1.6-7.82-5.61-10-10-0.58-1.17-.37-2.72-0.53-4.1l0.71-.2c0.44,0.89.89,1.78,1.3,2.69a3.34,3.34,0,0,0,3.5,2.18c4.23,0,8.31.74,10.63,5.13,1.18,2.23,2.6,4.41,5,5.44,0.2-.12-0.16-2.52-0.58-3.75,2-.8,1.19-1.94.14-3.07-1.43-1.54-2.88-3.06-4.39-4.66,1.53-.44,3.43-1.59,3.4-1.88h-8.27l0-.25c2.41-.44,7.22-2.15,7.21-2.57-3.84-2.36-8.4-.83-12.55-1.52l0-.57c2.65-.68,5.3-1.34,7.95-2.05s7.6-2.75,7.54-3H159.59c3.42-1.54,6.43-3.76,10.39-3.68,4.11,0.08,8.24.26,12.34,0,4.58-.34,8.19,1.83,12.18,3.72h-10.9c-0.05.29,5.11,2.38,7.75,3.09s5.17,1.34,7.72,2.28c-4.16,1-8.66-.6-12.87,2.1,2.26,2.56,5.26,1.33,8,2.45h-8.77c-0.06.29,1.86,1.52,3.36,2-1.53,1.63-3,3.25-4.54,4.82-1.15,1.19-1.23,2.18.35,2.84-0.43,1.17-.82,3.68-0.63,3.85a22.17,22.17,0,0,0,2.8-2.27,15.16,15.16,0,0,0,2.34-3.37c2.09-4.21,6.08-5,10-5,2.51,0,3.64-.81,4.34-2.94a16.46,16.46,0,0,1,1.13-2.17c1,2.5.2,4.25-.77,6.23-2.56,5.24-6.95,7.85-12.21,9.55a4.27,4.27,0,0,0-2.59,2.41,16.58,16.58,0,0,0,3.61.1c4.48-1,8.27-3.05,10.78-7.06,0.25-.41.91-2,1.11-2.43a35.55,35.55,0,0,0,2.89-11.94c0.14-1.53.28-3.06,0.44-4.94-1.22.65-2.54,0.9-4,1.66A13.71,13.71,0,0,1,210.7,246c0-.21-2.85-1-4.27-0.84-2.56.25-5.1,1-7.65,1a5.22,5.22,0,0,1-1.74-.37l9.74-2.37c11.28-.88,3.66,11.17,3.66,11.17,7.39-7,10.68-15.87-2.75-12.4-7.37,1.9-11.48,2.21-13.68,2.1l-0.06,0s-13.43-4.07-31.38-.38h0l-1.59.34-0.06,0c-2,.2-6.17,0-14.32-2.06C133.18,238.79,136.48,247.69,143.86,254.66Z" transform="translate(-132.63 -238.15)"/><path class="cls-1" d="M219.62,283a0.57,0.57,0,0,0-1.12.14c-0.1,1.9-.06,3.77-0.22,5.62-0.6,7.11-2.46,13.83-7.28,19.34a8.6,8.6,0,0,1-2.85,1.75,0.57,0.57,0,0,1-.73-0.78c1.53-3.1,3.18-6.15,4.42-9.36s2.1-6.71,3.07-10.1a0.57,0.57,0,0,0-.73-0.7c-0.72.25-1.68,0.63-2.43,0.92a0.57,0.57,0,0,1-.75-0.69c1-3.27,4.06-12.85,4.06-12.85-0.19.21-2,2.85-2.14,3.09-1.63,3-2.6,4.12-3.83,7.31-0.52,1.34-.94,2.3-1.17,2.81a0.56,0.56,0,0,0,.14.66c2.58,2.17.4,6.3-.7,7.6a15.83,15.83,0,0,0-3.19,6.2c-0.15.47-.36,1.13-0.58,1.83a0.57,0.57,0,0,1-1.11-.21c0.2-2.93.72-6.9,1.69-7.81,1.5-1.4,1.18-6.23-.5-7.09s-1.91-1.65-1.12-3a0.58,0.58,0,0,0-.21-0.8l-7.19-4.09a0.57,0.57,0,0,1,.19-1.06c2.64-.37,4.8.63,7,2a3.06,3.06,0,0,0,4.62-1.76l0.29-1.06a0.57,0.57,0,0,0-.42-0.7c-3.54-.88-4.07-1.06-4.24-2.12a0.57,0.57,0,0,1,.56-0.66c1.31,0,2.74.16,3.64-.45A4.58,4.58,0,0,0,208,274.4a0.57,0.57,0,0,0-.77-0.68c-1.25.53-1.59,0.51-2.27,0a0.58,0.58,0,0,1-.09-0.83,3.48,3.48,0,0,1,.52-0.53c2.61-2,6.61-13.21,6.44-16.43l0-1.45a0.57,0.57,0,0,0-1.1-.21c-2.24,5.24-4.83,17.52-17.91,19.91a13.7,13.7,0,0,1-3.21-.18,0.57,0.57,0,0,0-.63.43l-0.76,3.23a5.19,5.19,0,0,0-.05,2.2c0.28,1.43,1,3.19,1.77,3.48,11.88,4.22,9.65,14.6,9.39,16.65a0.56,0.56,0,0,1-.31.43c-6.63,3.38-3.4,13.36-2.37,16.09a0.57,0.57,0,0,1-.5.77,8.23,8.23,0,0,1-2.55-.26,7,7,0,0,0-6.48,1.53l-1,.86c1.82-2,5.7-1.33,8-.88,1.61,0.31,2.93,1.47,4.59,2.5a0.58,0.58,0,0,0,.88-0.49c0-1.32,0-2.46,0-3.61s0.07-2.7,1.73-2.7,1.68,1.49,1.69,2.72c0,2,0,3.92,0,5.89a0.57,0.57,0,0,0,1.07.28c1-1.76,2.38-4.49,3.15-6.2,0.1-.22.21-0.44,0.33-0.65l1.66,0.23h0a0.57,0.57,0,0,0,1,.18q5-7.72,9.91-15.4a3.05,3.05,0,0,0,.52-1.49c1.18-5.78.35-7.79,0-11.65A24.87,24.87,0,0,0,219.62,283Z" transform="translate(-132.63 -238.15)"/><path class="cls-1" d="M134.39,283a0.57,0.57,0,0,1,1.12.14c0.1,1.9.06,3.77,0.22,5.62,0.6,7.11,2.46,13.83,7.28,19.34a8.6,8.6,0,0,0,2.85,1.75,0.57,0.57,0,0,0,.73-0.78c-1.53-3.1-3.18-6.15-4.42-9.36s-2.1-6.71-3.07-10.1a0.57,0.57,0,0,1,.73-0.7c0.72,0.25,1.68.63,2.43,0.92a0.57,0.57,0,0,0,.75-0.69c-1-3.27-4.06-12.85-4.06-12.85,0.19,0.21,2,2.85,2.14,3.09,1.63,3,2.6,4.12,3.83,7.31,0.52,1.34.94,2.3,1.17,2.81a0.56,0.56,0,0,1-.14.66c-2.58,2.17-.4,6.3.7,7.6a15.83,15.83,0,0,1,3.19,6.2c0.15,0.47.36,1.13,0.58,1.83a0.57,0.57,0,0,0,1.11-.21c-0.2-2.93-.72-6.9-1.69-7.81-1.5-1.4-1.18-6.23.5-7.09s1.91-1.65,1.12-3a0.58,0.58,0,0,1,.21-0.8l7.19-4.09a0.57,0.57,0,0,0-.19-1.06c-2.64-.37-4.8.63-7,2a3.06,3.06,0,0,1-4.62-1.76l-0.29-1.06a0.57,0.57,0,0,1,.42-0.7c3.54-.88,4.07-1.06,4.24-2.12a0.57,0.57,0,0,0-.56-0.66c-1.31,0-2.74.16-3.64-.45A4.58,4.58,0,0,1,146,274.4a0.57,0.57,0,0,1,.77-0.68c1.25,0.53,1.59.51,2.27,0a0.58,0.58,0,0,0,.09-0.83,3.48,3.48,0,0,0-.52-0.53c-2.61-2-6.61-13.21-6.44-16.43l0-1a1,1,0,0,1,1.86-.35c2.25,5.21,4,17.16,17.15,19.55a13.7,13.7,0,0,0,3.21-.18,0.57,0.57,0,0,1,.63.43l0.76,3.23a5.19,5.19,0,0,1,.05,2.2c-0.28,1.43-1,3.19-1.77,3.48-13.84,4.9-9.65,14.59-9.39,16.64a0.58,0.58,0,0,0,.32.44c6.61,3.39,3.4,13.36,2.37,16.08a0.57,0.57,0,0,0,.5.77,8.31,8.31,0,0,0,2.2-.18,8.43,8.43,0,0,1,7.43,2l0.36,0.32c-3.77-2-5-1.65-8-.88a18.13,18.13,0,0,0-4.59,2.5,0.58,0.58,0,0,1-.88-0.49c0-1.32,0-2.46,0-3.61s-0.07-2.7-1.73-2.7-1.68,1.49-1.69,2.72c0,2,0,3.92,0,5.89a0.57,0.57,0,0,1-1.07.28c-1-1.76-2.38-4.49-3.15-6.2-0.1-.22-0.21-0.44-0.33-0.65l-1.66.23h0a0.57,0.57,0,0,1-1,.18q-5-7.72-9.91-15.4a3.05,3.05,0,0,1-.52-1.49c-1.18-5.78-.35-7.79,0-11.65A24.87,24.87,0,0,1,134.39,283Z" transform="translate(-132.63 -238.15)"/><path class="cls-1" d="M266.37,302.24h-13.9l-10.54-16.52h-0.11v16.52H230.65v-43h16.7q6.72,0,10.83,3.3t4.1,9.91a13.06,13.06,0,0,1-2.48,8,10.54,10.54,0,0,1-6.92,4.16Zm-24.55-23.7h1.08a19.58,19.58,0,0,0,2.88-.2,7.86,7.86,0,0,0,2.45-.77,4.36,4.36,0,0,0,1.77-1.65,6.06,6.06,0,0,0,0-5.47,4.39,4.39,0,0,0-1.77-1.65,7.86,7.86,0,0,0-2.45-.77,19.58,19.58,0,0,0-2.88-.2h-1.08v10.71Z" transform="translate(-132.63 -238.15)"/><path class="cls-1" d="M280.55,268.74v7.18h12.59v9.46H280.55v7.4h13.27v9.46H269.39v-43h24.44v9.46H280.55Z" transform="translate(-132.63 -238.15)"/><path class="cls-1" d="M300.72,259.28h15.84a22.13,22.13,0,0,1,8.44,1.62,21.48,21.48,0,0,1,7,4.59,21.25,21.25,0,0,1,4.7,6.89,21,21,0,0,1,1.68,8.37,20.78,20.78,0,0,1-1.71,8.37,21.32,21.32,0,0,1-4.73,6.86,22,22,0,0,1-7,4.59,21.67,21.67,0,0,1-8.38,1.65H300.72v-43Zm11.17,33.5h2.51a15.63,15.63,0,0,0,4.78-.71,11.11,11.11,0,0,0,3.93-2.19,10.1,10.1,0,0,0,2.68-3.79,13.66,13.66,0,0,0,1-5.33q0-5.64-3.36-8.83a12.38,12.38,0,0,0-8.89-3.19h-2.62v24Z" transform="translate(-132.63 -238.15)"/><path class="cls-1" d="M380.19,302.24H369v-33.5H359.8v-9.46h29.62v9.46h-9.23v33.5Z" transform="translate(-132.63 -238.15)"/><path class="cls-1" d="M404.64,302.24H393.47v-43h11.17v43Z" transform="translate(-132.63 -238.15)"/><path class="cls-1" d="M454.77,278.25a51,51,0,0,1-.94,9.46,20,20,0,0,1-3.45,7.52,19.05,19.05,0,0,1-7.63,6.35,24,24,0,0,1-10.08,2.08,25.5,25.5,0,0,1-9.23-1.62,21.08,21.08,0,0,1-7.29-4.64,20.45,20.45,0,0,1-4.73-7.21,24.84,24.84,0,0,1-1.65-9.2,25.7,25.7,0,0,1,1.68-9.46,21.08,21.08,0,0,1,4.79-7.35,20.81,20.81,0,0,1,7.4-4.7,26.57,26.57,0,0,1,9.43-1.62,22,22,0,0,1,11.68,3,19.84,19.84,0,0,1,7.69,9l-10.6,4.44a11,11,0,0,0-3.59-5,9.12,9.12,0,0,0-5.7-1.82,9.76,9.76,0,0,0-4.73,1.14,10.41,10.41,0,0,0-3.53,3.11,14.9,14.9,0,0,0-2.17,4.38,16.86,16.86,0,0,0,0,9.86,14.26,14.26,0,0,0,2.19,4.36,10.48,10.48,0,0,0,3.59,3,10.25,10.25,0,0,0,4.81,1.11,9.69,9.69,0,0,0,6.21-1.94,7.61,7.61,0,0,0,2.79-5.53h-9.11v-8.77h22.16Z" transform="translate(-132.63 -238.15)"/><path class="cls-1" d="M471.06,268.74v7.18h12.59v9.46H471.06v7.4h13.27v9.46H459.9v-43h24.44v9.46H471.06Z" transform="translate(-132.63 -238.15)"/><path class="cls-1" d="M527,302.24H513l-10.54-16.52H502.4v16.52H491.23v-43h16.7q6.72,0,10.83,3.3t4.1,9.91a13.06,13.06,0,0,1-2.48,8,10.54,10.54,0,0,1-6.92,4.16Zm-24.55-23.7h1.08a19.58,19.58,0,0,0,2.88-.2,7.86,7.86,0,0,0,2.45-.77,4.36,4.36,0,0,0,1.77-1.65,6.06,6.06,0,0,0,0-5.47,4.39,4.39,0,0,0-1.77-1.65,7.86,7.86,0,0,0-2.45-.77,19.58,19.58,0,0,0-2.88-.2H502.4v10.71Z" transform="translate(-132.63 -238.15)"/></svg>